<svg width="1600" height="1000" viewBox="0 0 1600 1000" fill="none" xmlns="http://www.w3.org/2000/svg">
<rect width="1600" height="1000" fill="#333333"/>
<path d="M224 350C196.386 350 174 372.386 174 400V650L302.5 500L360.3 432.529C388.087 400.093 365.039 350 322.328 350H224Z" fill="url(#paint0_linear_202_6)"/>
<path d="M302.5 500L174 650L351.173 546.591C373.21 533.73 364.087 500 338.571 500H302.5Z" fill="url(#paint1_linear_202_6)"/>
<path d="M174 650H169V658.708L176.52 654.318L174 650ZM169 400V650H179V400H169ZM322.328 345H224V355H322.328V345ZM177.797 653.253L306.297 503.253L298.703 496.747L170.203 646.747L177.797 653.253ZM306.297 503.253L364.097 435.782L356.503 429.276L298.703 496.747L306.297 503.253ZM302.5 505H338.571V495H302.5V505ZM348.653 542.273L171.48 645.682L176.52 654.318L353.694 550.91L348.653 542.273ZM338.571 505C358.983 505 366.282 531.984 348.653 542.273L353.694 550.91C380.137 535.476 369.19 495 338.571 495V505ZM322.328 355C360.768 355 381.511 400.083 356.503 429.276L364.097 435.782C394.663 400.102 369.311 345 322.328 345V355ZM179 400C179 375.147 199.147 355 224 355V345C193.624 345 169 369.624 169 400H179Z" fill="black"/>
<path d="M466.328 596C461.549 596 457.624 594.549 454.552 591.648C451.651 588.576 450.2 584.821 450.2 580.384V432.416C450.2 427.979 451.651 424.309 454.552 421.408C457.624 418.336 461.379 416.8 465.816 416.8H549.016C553.453 416.8 557.123 418.251 560.024 421.152C563.096 423.883 564.632 427.467 564.632 431.904C564.632 435.659 563.096 438.987 560.024 441.888C557.123 444.789 553.453 446.24 549.016 446.24H479.896L482.2 443.168V494.624L480.408 491.296H537.496C541.933 491.296 545.603 492.747 548.504 495.648C551.576 498.379 553.112 501.963 553.112 506.4C553.112 510.155 551.576 513.483 548.504 516.384C545.603 519.285 541.933 520.736 537.496 520.736H479.896L482.2 518.432V580.384C482.2 584.821 480.579 588.576 477.336 591.648C474.264 594.549 470.595 596 466.328 596ZM612.382 596C607.603 596 603.337 594.549 599.582 591.648C595.827 588.576 593.95 584.821 593.95 580.384V432.416C593.95 427.979 595.401 424.309 598.302 421.408C601.374 418.336 605.129 416.8 609.566 416.8H683.294C692.169 416.8 700.446 419.189 708.126 423.968C715.977 428.576 722.291 435.061 727.07 443.424C731.849 451.616 734.238 461.088 734.238 471.84C734.238 478.325 732.873 484.64 730.142 490.784C727.582 496.928 723.998 502.475 719.39 507.424C714.953 512.373 709.918 516.213 704.286 518.944L704.542 513.056C709.321 515.616 713.246 518.688 716.318 522.272C719.561 525.685 722.035 529.44 723.742 533.536C725.619 537.461 726.729 541.728 727.07 546.336C727.753 550.603 728.179 554.357 728.35 557.6C728.691 560.843 729.203 563.573 729.886 565.792C730.739 568.011 732.275 569.717 734.494 570.912C738.249 573.131 740.553 576.373 741.406 580.64C742.43 584.736 741.491 588.405 738.59 591.648C736.713 593.867 734.323 595.317 731.422 596C728.521 596.512 725.619 596.512 722.718 596C719.817 595.317 717.427 594.464 715.55 593.44C712.649 591.733 709.747 589.259 706.846 586.016C703.945 582.603 701.555 578.08 699.678 572.448C697.971 566.816 697.118 559.563 697.118 550.688C697.118 547.787 696.606 545.141 695.582 542.752C694.558 540.192 693.107 538.059 691.23 536.352C689.353 534.475 686.963 533.109 684.062 532.256C681.161 531.232 677.747 530.72 673.822 530.72H622.11L625.95 524.832V580.384C625.95 584.821 624.755 588.576 622.366 591.648C619.977 594.549 616.649 596 612.382 596ZM622.366 504.352H682.014C685.086 504.352 688.073 502.987 690.974 500.256C693.875 497.355 696.265 493.515 698.142 488.736C700.019 483.787 700.958 478.411 700.958 472.608C700.958 465.099 698.91 458.869 694.814 453.92C690.889 448.8 686.622 446.24 682.014 446.24H622.878L625.95 438.048V510.496L622.366 504.352ZM868.516 566.048C872.953 566.048 876.623 567.499 879.524 570.4C882.596 573.131 884.132 576.715 884.132 581.152C884.132 585.419 882.596 589.003 879.524 591.904C876.623 594.635 872.953 596 868.516 596H785.316C780.879 596 777.124 594.549 774.052 591.648C771.151 588.576 769.7 584.821 769.7 580.384V432.416C769.7 427.979 771.236 424.309 774.308 421.408C777.38 418.336 781.305 416.8 786.084 416.8C790.18 416.8 793.764 418.336 796.836 421.408C800.079 424.309 801.7 427.979 801.7 432.416V570.4L796.068 566.048H868.516ZM979.242 456.992L923.946 587.04C922.751 590.283 920.874 592.843 918.314 594.72C915.925 596.427 913.279 597.28 910.378 597.28C905.77 597.28 902.357 596 900.138 593.44C897.919 590.88 896.81 587.723 896.81 583.968C896.81 582.432 897.066 580.811 897.578 579.104L961.322 426.016C962.687 422.603 964.735 419.957 967.466 418.08C970.367 416.203 973.439 415.435 976.682 415.776C979.754 415.776 982.57 416.715 985.13 418.592C987.861 420.299 989.823 422.773 991.018 426.016L1053.99 576.032C1054.85 578.251 1055.27 580.299 1055.27 582.176C1055.27 586.784 1053.74 590.453 1050.67 593.184C1047.76 595.915 1044.52 597.28 1040.94 597.28C1037.87 597.28 1035.05 596.341 1032.49 594.464C1030.1 592.587 1028.22 590.027 1026.86 586.784L971.818 458.528L979.242 456.992ZM931.882 555.808L945.962 526.368H1015.08L1019.95 555.808H931.882ZM1212.89 416.8C1216.98 416.8 1220.31 418.165 1222.87 420.896C1225.43 423.627 1226.71 427.04 1226.71 431.136V580.384C1226.71 584.821 1225.17 588.576 1222.1 591.648C1219.2 594.549 1215.53 596 1211.09 596C1208.88 596 1206.57 595.659 1204.18 594.976C1201.96 594.123 1200.26 593.013 1199.06 591.648L1098.45 463.904L1105.11 459.808V581.664C1105.11 585.76 1103.74 589.173 1101.01 591.904C1098.45 594.635 1095.04 596 1090.77 596C1086.68 596 1083.35 594.635 1080.79 591.904C1078.23 589.173 1076.95 585.76 1076.95 581.664V432.416C1076.95 427.979 1078.4 424.309 1081.3 421.408C1084.37 418.336 1088.13 416.8 1092.57 416.8C1094.96 416.8 1097.43 417.312 1099.99 418.336C1102.55 419.189 1104.43 420.555 1105.62 422.432L1203.16 546.848L1198.81 549.92V431.136C1198.81 427.04 1200.09 423.627 1202.65 420.896C1205.21 418.165 1208.62 416.8 1212.89 416.8ZM1349.68 598.56C1336.71 598.56 1324.59 596.171 1313.33 591.392C1302.06 586.613 1292.17 580.043 1283.63 571.68C1275.1 563.147 1268.36 553.333 1263.41 542.24C1258.63 531.147 1256.24 519.2 1256.24 506.4C1256.24 493.6 1258.63 481.653 1263.41 470.56C1268.36 459.467 1275.1 449.739 1283.63 441.376C1292.17 432.843 1302.06 426.187 1313.33 421.408C1324.59 416.629 1336.71 414.24 1349.68 414.24C1357.7 414.24 1365.47 415.093 1372.98 416.8C1380.49 418.507 1387.4 421.067 1393.71 424.48C1396.27 425.845 1398.15 427.723 1399.34 430.112C1400.71 432.331 1401.39 434.635 1401.39 437.024C1401.39 441.12 1400.03 444.789 1397.3 448.032C1394.57 451.275 1391.07 452.896 1386.8 452.896C1385.43 452.896 1383.98 452.725 1382.45 452.384C1381.08 452.043 1379.72 451.531 1378.35 450.848C1374.09 448.971 1369.56 447.52 1364.78 446.496C1360.01 445.472 1354.97 444.96 1349.68 444.96C1338.59 444.96 1328.43 447.776 1319.22 453.408C1310.17 458.869 1302.92 466.293 1297.46 475.68C1292.17 484.896 1289.52 495.136 1289.52 506.4C1289.52 517.493 1292.17 527.733 1297.46 537.12C1302.92 546.507 1310.17 554.016 1319.22 559.648C1328.43 565.109 1338.59 567.84 1349.68 567.84C1354.8 567.84 1360.43 567.328 1366.58 566.304C1372.72 565.28 1377.75 563.915 1381.68 562.208L1379.38 569.888V526.112L1383.73 529.952H1355.31C1350.87 529.952 1347.12 528.501 1344.05 525.6C1341.15 522.699 1339.7 519.029 1339.7 514.592C1339.7 510.155 1341.15 506.485 1344.05 503.584C1347.12 500.683 1350.87 499.232 1355.31 499.232H1397.3C1401.73 499.232 1405.4 500.768 1408.3 503.84C1411.21 506.741 1412.66 510.411 1412.66 514.848V569.12C1412.66 572.533 1411.8 575.349 1410.1 577.568C1408.56 579.787 1406.77 581.579 1404.72 582.944C1396.87 587.723 1388.25 591.563 1378.86 594.464C1369.65 597.195 1359.92 598.56 1349.68 598.56Z" fill="#F2F2F2"/>
<defs>
<linearGradient id="paint0_linear_202_6" x1="174" y1="650" x2="290.466" y2="309.614" gradientUnits="userSpaceOnUse">
<stop stop-color="#0571FF"/>
<stop offset="0.526042" stop-color="#0571FF"/>
<stop offset="0.760417" stop-color="#0B3CFF"/>
</linearGradient>
<linearGradient id="paint1_linear_202_6" x1="174" y1="650" x2="371.703" y2="462.751" gradientUnits="userSpaceOnUse">
<stop stop-color="#05B4FF"/>
<stop offset="0.336802" stop-color="#05FFB4"/>
<stop offset="0.760417" stop-color="#0BFF98"/>
</linearGradient>
</defs>
</svg>
